HIERARCHY
ROOT Hips
{
  OFFSET -187.679 86.5976 -156.378
  CHANNELS 6 Xposition Yposition Zposition Zrotation Xrotation Yrotation
  JOINT LeftUpLeg
  {
    OFFSET 8.64259 1.95398 -2.38835
    CHANNELS 3 Zrotation Xrotation Yrotation
    JOINT LeftLeg
    {
      OFFSET 43.7702 0 0
      CHANNELS 3 Zrotation Xrotation Yrotation
      JOINT LeftFoot
      {
        OFFSET 40.6238 0 0
        CHANNELS 3 Zrotation Xrotation Yrotation
        JOINT LeftToeBase
        {
          OFFSET 12.7242 0 0
          CHANNELS 3 Zrotation Xrotation Yrotation
          End Site
          {
            OFFSET 0 0 0
          }
        }
      }
    }
  }
  JOINT RightUpLeg
  {
    OFFSET -8.2249 1.95398 -2.59336
    CHANNELS 3 Zrotation Xrotation Yrotation
    JOINT RightLeg
    {
      OFFSET 43.5653 0 0
      CHANNELS 3 Zrotation Xrotation Yrotation
      JOINT RightFoot
      {
        OFFSET 40.6238 0 0
        CHANNELS 3 Zrotation Xrotation Yrotation
        JOINT RightToeBase
        {
          OFFSET 12.7242 0 0
          CHANNELS 3 Zrotation Xrotation Yrotation
          End Site
          {
            OFFSET 0 0 0
          }
        }
      }
    }
  }
  JOINT Spine
  {
    OFFSET 0.165834 0.87714 6.61349
    CHANNELS 3 Zrotation Xrotation Yrotation
    JOINT Spine1
    {
      OFFSET 7.38963 1.71661e-005 0
      CHANNELS 3 Zrotation Xrotation Yrotation
      JOINT Spine2
      {
        OFFSET 11.9445 1.14441e-005 0
        CHANNELS 3 Zrotation Xrotation Yrotation
        JOINT Spine3
        {
          OFFSET 14.7254 4.19617e-005 0
          CHANNELS 3 Zrotation Xrotation Yrotation
          JOINT Spine4
          {
            OFFSET 10.9679 0 0
            CHANNELS 3 Zrotation Xrotation Yrotation
            JOINT RightShoulder
            {
              OFFSET 2.46616 -1.6653 3.69651
              CHANNELS 3 Zrotation Xrotation Yrotation
              JOINT RightArm
              {
                OFFSET 13.0012 0 0
                CHANNELS 3 Zrotation Xrotation Yrotation
                JOINT RightForeArm
                {
                  OFFSET 28.7848 1.52588e-005 0
                  CHANNELS 3 Zrotation Xrotation Yrotation
                  JOINT RightHand
                  {
                    OFFSET 26.5688 1.52588e-005 0
                    CHANNELS 3 Zrotation Xrotation Yrotation
                    End Site
                    {
                      OFFSET 0 0 0
                    }
                  }
                }
              }
            }
            JOINT LeftShoulder
            {
              OFFSET 2.38034 -1.29275 -3.7523
              CHANNELS 3 Zrotation Xrotation Yrotation
              JOINT LeftArm
              {
                OFFSET 16.3182 6.10352e-005 0
                CHANNELS 3 Zrotation Xrotation Yrotation
                JOINT LeftForeArm
                {
                  OFFSET 27.0901 0 0
                  CHANNELS 3 Zrotation Xrotation Yrotation
                  JOINT LeftHand
                  {
                    OFFSET 24.5451 1.52588e-005 0
                    CHANNELS 3 Zrotation Xrotation Yrotation
                    End Site
                    {
                      OFFSET 0 0 0
                    }
                  }
                }
              }
            }
            JOINT Neck
            {
              OFFSET 5.0226 -0.0266342 0
              CHANNELS 3 Zrotation Xrotation Yrotation
              JOINT Head
              {
                OFFSET 6.69363 2.86102e-005 0
                CHANNELS 3 Zrotation Xrotation Yrotation
                End Site
                {
                  OFFSET 0 0 0
                }
              }
            }
          }
        }
      }
    }
  }
}
MOTION
Frames:	14
Frame Time:	0.0416667
-13.25 103.779 17.834 93.9238 20.6501 74.5295 -179.117 35.5316 79.687 -46.1744 13.7888 3.7419 80.1649 9.52224 0.104692 12.2846 -5.28231 -2.76053 169.484 -4.55973 80.4748 -20.2901 8.26945 -0.00252942 63.9137 -3.04214 -1.0494 31.5917 -1.86423 8.75012 2.45911 8.22221 -87.8441 10.3236 5.88505 3.77343 -1.33873 6.04528 3.51034 -23.8986 4.48039 5.36724 -3.88594 4.48038 5.36724 88.0228 -41.056 -106.282 19.3993 -20.7949 -34.5734 -9.45466 -10.3103 -0.00519397 -19.6295 -0.309136 -3.21962 -87.7661 -42.8624 80.918 -20.6955 1.15323 14.662 12.016 -3.00386 -3.21013 13.6817 1.73704 8.69131 1.45284 14.1717 42.3939 5.75821 6.55977 -12.8214 
-0.277575 95.5326 5.30842 94.9584 21.1278 77.3577 -178.813 32.6737 81.6718 -32.3139 15.4422 2.45984 75.3283 7.4426 -0.655722 15.9592 -5.71513 1.30523 166.274 -18.0224 78.3173 -21.0244 13.6136 -0.865639 81.7045 -8.57175 2.5788 37.9231 1.42383 0.0076928 1.93577 8.22756 -88.4998 10.3604 4.54261 2.58599 -1.30475 4.65197 2.38331 -23.8622 3.55582 3.83192 -3.84958 3.55581 3.83191 88.6258 -40.7084 -105.37 28.7215 -17.8162 -24.5185 -11.5451 -11.4666 -0.729434 -20.035 -0.585765 -1.63971 -89.183 -51.8612 80.5547 -24.9608 4.82899 13.6924 11.1342 -6.61641 -3.98664 9.15913 1.07775 7.31078 5.66788 14.3093 33.2921 5.99888 7.1361 -8.0727 
17.037 92.8096 -7.47891 95.8535 26.5969 79.3531 -175.88 30.7936 80.7478 -45.5566 19.915 1.3992 69.6426 4.53541 -0.427383 14.5102 -8.82793 6.10258 165.076 -18.8289 76.1416 -37.8563 15.2094 -0.357584 65.0373 -3.47284 -0.666319 35.8659 -0.0170045 3.90343 1.21072 7.83307 -88.4246 11.1574 3.14141 2.82965 -0.512601 3.26286 2.68867 -23.0378 2.14641 3.64227 -3.0252 2.14641 3.64227 87.0812 -45.5571 -106.403 36.0993 -15.0966 -2.81265 -12.7585 -7.64238 -3.65068 -17.6557 -0.300475 -3.09249 -90.2589 -50.1135 78.5911 -20.7184 9.05934 7.94095 10.6716 -3.77885 -2.65922 7.35753 0.891459 7.28467 10.639 11.1039 15.3455 3.09654 6.9094 -9.25665 
29.9437 93.2801 -18.1615 98.4792 30.8482 80.1146 -174.489 23.0468 82.2813 -56.3372 24.5365 1.7299 79.8028 10.7346 3.22519 9.91715 -9.74648 3.79117 170.967 7.67938 90.2351 -92.1642 4.75285 -3.50293 61.4332 -1.84041 -0.94171 24.5201 -3.17819 7.69021 0.189589 7.92985 -88.6642 10.9872 0.996389 2.57209 -0.68593 1.10855 2.52579 -23.1999 0.177659 2.75251 -3.18729 0.177662 2.7525 90.566 -43.5763 -101.281 35.0894 -6.39025 9.21727 -15.2036 -7.95836 -2.93342 -14.542 -0.183836 -3.61904 -87.8227 -42.7103 80.8002 -10.2733 1.83786 -7.7643 12.9414 1.48112 -5.66146 12.6238 1.70958 9.33232 11.6753 6.74865 -1.36981 2.06665 6.42732 -10.1765 
41.7035 102.451 -28.7599 103.355 29.0344 85.6844 -174.167 -0.949084 86.8668 -36.428 24.946 6.55514 66.4207 2.79869 -0.958942 15.4693 -4.7336 -1.2623 177.59 29.9616 99.334 -107.473 19.9809 -3.81148 69.2244 -3.11484 -1.34965 22.8693 -3.3972 7.1449 -0.284282 8.37913 -89.9927 10.1158 -0.563106 0.0617909 -1.55499 -0.559832 0.0865138 -24.0911 -0.55562 -0.110306 -4.07845 -0.55565 -0.110315 90.6535 -41.2016 -101.775 28.1884 -8.01295 12.8294 -14.585 -7.6851 -1.86506 -14.8451 -0.155402 -3.87469 -86.1146 -35.1044 82.1108 -6.88838 -5.89336 -14.741 14.4228 4.87385 -8.43456 16.8161 2.26858 9.68002 -0.437927 7.48245 -3.31564 7.01819 6.80965 -11.9538 
52.6888 110.457 -39.6858 105.694 37.9777 87.2514 -173.584 -8.43611 91.432 -27.2854 34.9932 8.8305 52.2539 -3.13657 -4.44041 13.5322 -7.70978 3.15397 177.695 40.7461 102.441 -102.251 22.0143 -3.30118 77.714 -4.93912 -0.384117 20.1795 -3.6834 6.24441 -1.02957 8.70598 -91.0059 9.42938 -2.50521 -1.80074 -2.24027 -2.58202 -1.68872 -24.7766 -1.84836 -2.4703 -4.764 -1.84835 -2.47029 89.9572 -40.4872 -103.167 26.7044 -10.7943 19.204 -13.3079 -5.75747 -1.34665 -13.7957 -0.0289655 -4.89071 -87.0881 -30.8674 79.3154 -1.54674 -2.90744 -22.3358 12.0521 -1.01276 -2.57787 14.6359 1.33737 5.35683 -4.12518 5.51035 -8.09211 9.40424 5.3121 -9.96052 
63.6601 111.714 -49.6645 103.448 45.1046 87.9621 -174.661 -6.07359 89.6709 -19.6689 25.669 7.30811 55.4331 -1.58204 -3.21757 12.9827 -8.97803 5.12974 177.356 44.6682 101.575 -87.7691 15.0268 -2.24339 76.6451 -4.92111 -1.13788 22.2547 -3.30187 6.49915 -1.33534 8.71881 -91.2009 9.40326 -3.20268 -2.14077 -2.26524 -3.29379 -1.99769 -24.8064 -2.41149 -3.00422 -4.79376 -2.4115 -3.00422 89.5261 -42.6033 -103.285 28.3486 -8.05747 22.3762 -13.8339 -5.86083 -1.84148 -14.4004 0.0131669 -5.26024 -86.8416 -29.5031 79.4163 1.67628 -2.52985 -31.7239 11.5349 -3.84431 -0.14011 15.2601 1.39991 5.36589 1.3051 1.15752 -19.0873 7.60532 3.4676 -6.03015 
76.1574 106.062 -60.0036 103.443 49.6336 88.6261 -174.827 -2.54406 90.8144 -29.1956 29.6966 9.72115 60.2338 1.39328 4.13511 19.1351 -2.35502 -3.89776 176.897 40.9329 102.624 -66.0386 7.48625 0.573998 74.4894 -4.75968 -0.0941382 25.4791 -2.50608 6.21497 -1.32365 8.66582 -91.2452 9.50517 -3.20001 -2.22707 -2.16352 -3.29487 -2.08403 -24.7028 -2.38305 -3.08566 -4.69015 -2.38305 -3.08566 87.6874 -45.1107 -105.549 33.1405 -6.85608 23.0907 -14.0741 -3.35096 -1.31955 -13.9325 -0.000355444 -5.13766 -87.4301 -31.3011 78.783 1.58752 0.550331 -36.0678 11.0781 -2.11032 -1.03853 15.0351 1.55977 6.55359 -0.935213 -1.52134 -26.0404 9.93471 1.53173 -3.55773 
90.4568 96.9072 -71.4695 107.097 50.0635 85.0007 -166.603 -14.8298 99.2756 -36.1479 31.5644 7.45748 90.0368 13.9899 -2.36322 13.9599 -4.14014 -3.76812 178.687 32.1611 103.419 -43.3109 5.61585 2.50012 72.8677 -4.75243 -0.449646 26.3434 -1.88487 4.85241 -1.13661 8.80793 -90.763 9.24206 -2.6088 -1.3229 -2.42683 -2.66449 -1.20674 -24.9713 -2.09066 -2.04591 -4.95861 -2.09066 -2.04589 88.5645 -48.5189 -103.198 36.1085 -6.9718 16.3984 -14.3783 -0.397335 -0.00771147 -14.0643 0.0201948 -5.30382 -89.0227 -38.418 77.7901 -12.4171 -8.62192 -35.4022 16.6542 10.9476 -11.8726 16.1771 1.96069 8.30131 0.0292718 -3.86949 -29.0205 9.25988 -0.385525 -6.27572 
104.573 92.6358 -87.1193 102.186 49.8585 86.6048 -166.205 -25.3729 98.0502 -33.6191 31.3036 8.68023 78.0794 10.27 3.16176 23.3805 -0.491336 -4.63529 174.237 29.4041 101.594 -45.3707 7.66842 6.12731 64.759 -1.24727 -1.54416 23.8019 -2.24574 4.38697 -1.26282 8.06207 -90.7966 10.7352 -2.88211 -1.32 -0.93307 -2.93744 -1.1918 -23.4813 -2.35216 -2.12536 -3.46863 -2.35215 -2.12535 88.6342 -48.9773 -102.972 32.7579 -6.6284 8.8586 -14.8782 2.40521 0.0163579 -10.9292 -0.0552604 -4.5885 -91.9708 -44.9475 74.7013 -17.5695 4.41482 -20.4539 15.0558 11.5562 -11.0461 12.3886 1.56982 8.51314 2.72551 -3.95443 -22.1572 6.86898 -0.889345 -5.2279 
115.936 91.2895 -99.5914 101.388 48.209 86.2117 -169.924 -1.01983 90.0928 -81.4642 35.9692 9.49761 63.596 2.64523 3.49163 6.39448 -7.8759 -2.29056 170.255 25.5128 100.804 -62.4893 3.68939 6.20522 80.642 -7.04831 -1.87169 21.9047 -2.70465 4.56079 -0.277426 8.0173 -91.0207 10.8187 -1.02416 -1.94796 -0.853347 -1.10887 -1.90102 -23.3766 -0.391597 -2.16561 -3.36391 -0.391607 -2.16561 91.0752 -44.3049 -100.253 28.6451 -10.9956 -6.45944 -13.2173 -1.7159 -0.174032 -17.0971 -0.229288 -3.62895 -92.1966 -48.2955 75.2794 -19.6109 8.33879 -6.30886 11.6686 1.06442 -2.97511 11.9618 1.67733 9.82896 13.6541 -2.4806 -1.52009 4.31221 -1.98884 -0.888094 
127.7 100.004 -109.465 104.662 49.1135 77.7231 -177.388 29.2875 91.8905 -106.822 28.2051 9.71949 62.681 2.68736 6.02753 6.93046 -6.19941 -4.99526 172.538 5.93435 95.8747 -45.6135 4.80981 4.58031 68.4546 -3.05717 -1.38863 28.9217 -2.71041 9.52517 0.675429 8.32124 -89.7897 10.2403 1.44179 0.311444 -1.42984 1.45411 0.247666 -23.9704 1.28161 0.730436 -3.95775 1.28161 0.730432 93.2602 -40.178 -97.5383 31.8996 -8.83667 -15.7829 -15.2191 -10.6726 -5.6983 -18.4087 -0.276828 -3.31166 -89.7168 -42.6817 77.7021 -12.4465 -2.01022 2.07393 13.9909 5.63889 -3.08553 11.3137 1.58093 9.64305 5.68328 -2.00087 1.29471 7.16178 -1.80423 5.15482 
139.609 110.137 -120.072 103.285 44.2749 72.531 -178.249 42.501 83.601 -96.2584 25.954 8.19952 67.3644 5.04819 5.97449 3.63542 -7.42225 -5.1095 174.482 -5.53182 88.9727 -29.2343 -2.11241 -0.932243 50.9366 1.96149 1.04023 23.1538 -1.95735 3.16901 1.38475 8.33385 -88.2859 10.1495 3.54099 3.10513 -1.51998 3.67416 2.94628 -24.0466 2.44487 4.02498 -4.03391 2.44486 4.02497 91.6792 -39.9607 -100.337 32.7912 -14.6167 -18.5768 -13.6044 -11.9525 -6.25909 -18.5416 -0.18208 -3.92096 -88.5834 -37.5496 78.3237 -5.45459 4.55317 10.392 11.6023 0.0753802 -3.4888 13.1612 1.49695 7.38466 -4.75044 -0.598895 3.59081 10.674 -0.662957 2.45574 
149.319 113.46 -131.093 97.2682 37.3556 74.4692 -178.502 46.958 79.6908 -78.5131 22.9012 6.32744 72.9046 7.06393 3.62363 2.86289 -8.48416 -3.87612 168.816 -4.04916 83.7635 -21.9424 1.22208 2.78256 47.1969 1.76314 4.73468 31.9505 0.204706 1.07465 2.15295 8.36362 -87.9306 10.0507 5.2318 3.67376 -1.61425 5.38836 3.43971 -24.1601 3.88721 5.07545 -4.14747 3.8872 5.07543 90.4261 -41.1213 -102.185 29.4859 -16.2714 -18.9397 -13.0158 -8.80175 -5.491 -17.8189 -0.0493174 -4.74534 -88.0642 -44.0838 80.7081 0.145916 -0.298218 11.7649 13.58 6.06979 -8.41201 18.7739 2.75334 10.7404 -0.362522 0.652931 19.3165 8.86344 -2.52485 -5.11658 
